<svg width="158" height="56" viewBox="0 0 158 56" fill="none" xmlns="http://www.w3.org/2000/svg">
<g clip-path="url(#clip0_15764_234)">
<path d="M11.148 53.8586C-3.70039 45.3732 -3.6546 10.268 10.9178 2.02462C25.4902 -6.21876 55.7201 12.354 55.7201 28.139C55.7201 43.9239 25.9965 62.344 11.148 53.8586Z" fill="#FC794B"/>
<path d="M10.4721 21.8694C13.8736 21.8694 16.1034 24.6134 16.1034 27.9062C16.1034 28.1005 16.092 28.2835 16.0806 28.4664C16.0465 28.798 15.8417 28.9466 15.5345 28.9466H7.05651C7.43038 30.8205 8.8178 31.7821 10.5517 31.7821C11.6325 31.7821 12.5312 31.3247 13.0204 30.6845C13.2024 30.4901 13.3731 30.3758 13.6461 30.3758L15.1023 30.3643C15.4777 30.3643 15.6824 30.593 15.5345 30.9131C14.7041 32.7768 12.8384 33.8972 10.5177 33.8972C6.88861 33.8972 4.51099 31.3133 4.51099 27.8833C4.51099 24.4991 6.91139 21.8694 10.4721 21.8694ZM7.04718 26.9115H13.6315C13.3091 24.9644 11.9256 24.1218 10.461 24.1218C8.62623 24.1218 7.38165 25.2008 7.04718 26.9115ZM28.9212 22.1667C29.2511 22.1667 29.4331 22.3496 29.4331 22.6812V33.0855C29.4331 33.417 29.2511 33.6 28.9212 33.6H27.4878C27.1579 33.6 26.9759 33.417 26.9759 33.0855V31.9591C26.1149 33.1593 24.7766 33.8972 22.983 33.8972C19.8887 33.8972 17.329 31.279 17.329 27.8833C17.329 24.4876 19.8887 21.8694 22.983 21.8694C24.7766 21.8694 26.1149 22.6073 26.9759 23.8076V22.6812C26.9759 22.3496 27.1579 22.1667 27.4878 22.1667H28.9212ZM23.381 31.542C25.4287 31.542 26.9759 30.0099 26.9759 27.8833C26.9759 25.7567 25.4287 24.2247 23.381 24.2247C21.3332 24.2247 19.7861 25.7567 19.7861 27.8833C19.7861 30.0099 21.3332 31.542 23.381 31.542ZM34.1625 25.3794C34.1625 27.6775 40.4762 26.0197 40.4762 30.3872C40.4762 32.6396 38.5195 33.8972 36.0054 33.8972C33.6733 33.8972 31.819 32.7768 31.5687 30.6044C31.5346 30.25 31.7393 30.0671 32.0692 30.0671H33.4799C33.7871 30.0671 33.9122 30.2386 34.026 30.5244C34.2193 31.3476 35.0157 31.6792 36.0054 31.6792C37.1999 31.6792 38.019 31.2561 38.019 30.3872C38.019 28.112 31.7052 29.7355 31.7052 25.3794C31.7052 23.1499 33.6619 21.8694 36.0054 21.8694C38.1328 21.8694 39.9643 22.9899 40.2146 25.1622C40.2487 25.5166 40.0439 25.6995 39.714 25.6995H38.3034C37.9962 25.6995 37.8711 25.528 37.7573 25.2308C37.5753 24.419 36.8131 24.0875 36.0054 24.0875C34.9815 24.0875 34.1625 24.5105 34.1625 25.3794ZM49.0621 22.5897C49.1532 22.3039 49.3579 22.1667 49.6423 22.1667H51.2008C51.5649 22.1667 51.7469 22.3839 51.6218 22.7498L46.4911 37.7617C46.4001 38.0475 46.184 38.1733 45.8996 38.1733H44.341C43.977 38.1733 43.7949 37.9561 43.9201 37.5902L45.3307 33.4628L41.1329 22.7612C40.9964 22.4068 41.1556 22.1667 41.5311 22.1667H43.0782C43.3626 22.1667 43.556 22.2924 43.6584 22.5668L46.5594 30.0442L49.0621 22.5897Z" fill="white"/>
<path d="M69.9661 22.1669C70.296 22.1664 70.4782 22.3494 70.4782 22.6809V33.0853C70.4782 36.7439 67.6113 38.4703 64.6988 38.4703C62.0028 38.4703 59.4545 36.9954 59.1246 34.5373C59.1018 34.1829 59.3067 33.9999 59.6366 33.9999H61.0813C61.3885 33.9999 61.5364 34.16 61.6274 34.4573C61.9004 35.3605 62.9698 36.2294 64.6988 36.2294C66.8378 36.2294 68.0663 35.0632 68.0663 33.0853V31.6838C67.2071 32.9042 65.853 33.6686 64.0274 33.6686C60.9332 33.6686 58.3736 31.0504 58.3736 27.769C58.3736 24.4876 60.9332 21.8694 64.0274 21.8694C65.853 21.8694 67.2071 22.6338 68.0663 23.8543V22.6814C68.0663 22.3498 68.2484 22.1669 68.5783 22.1669H69.9661ZM64.4488 31.3588C66.5193 31.3588 68.0663 29.8268 68.0663 27.7688C68.0663 25.7108 66.5193 24.1787 64.4488 24.1787C62.3782 24.1787 60.831 25.7108 60.831 27.7688C60.831 29.8268 62.3782 31.3588 64.4488 31.3588ZM78.427 21.8696C81.8281 21.8696 84.0579 24.6136 84.0579 27.9064C84.0579 28.1008 84.0465 28.2837 84.0351 28.4667C84.0014 28.7982 83.7965 28.9469 83.4894 28.9469H75.0113C75.385 30.8208 76.7728 31.7823 78.5063 31.7823C79.5869 31.7823 80.4861 31.325 80.9753 30.6847C81.1574 30.4904 81.3281 30.376 81.601 30.376L83.0572 30.3646C83.4322 30.3646 83.6372 30.5933 83.4894 30.9134C82.6587 32.777 80.7932 33.8975 78.4727 33.8975C74.8431 33.8975 72.4655 31.3136 72.4655 27.8836C72.4655 24.4993 74.866 21.8696 78.427 21.8696ZM75.0018 26.9117H81.5864C81.264 24.9647 79.8801 24.122 78.4156 24.122C76.5811 24.122 75.3362 25.2011 75.0018 26.9117ZM91.5975 21.8696C93.713 21.8696 95.3514 23.4932 95.3514 26.2372V33.0857C95.3514 33.4173 95.1693 33.6002 94.8393 33.6002H93.4059C93.0766 33.6002 92.8945 33.4173 92.8945 33.0857V26.3858C92.8945 24.9109 92.0068 24.1792 90.8126 24.1792C89.527 24.1792 88.3664 24.9452 88.3664 27.0375V33.0857C88.3664 33.4173 88.1843 33.6002 87.8543 33.6002H86.4209C86.0916 33.6002 85.9095 33.4173 85.9095 33.0857V22.6814C85.9095 22.3498 86.0916 22.1669 86.4209 22.1669H87.8543C88.1843 22.1669 88.3664 22.3498 88.3664 22.6814V23.4614C89.0949 22.3487 90.2066 21.8696 91.5975 21.8696ZM103.016 21.8696C106.417 21.8696 108.647 24.6136 108.647 27.9064C108.647 28.1008 108.635 28.2837 108.625 28.4667C108.59 28.7982 108.385 28.9469 108.078 28.9469H99.6003C99.974 30.8208 101.362 31.7823 103.095 31.7823C104.177 31.7823 105.075 31.325 105.564 30.6847C105.746 30.4904 105.917 30.376 106.19 30.376L107.646 30.3646C108.021 30.3646 108.226 30.5933 108.078 30.9134C107.248 32.777 105.382 33.8975 103.062 33.8975C99.4321 33.8975 97.0545 31.3136 97.0545 27.8836C97.0545 24.4993 99.455 21.8696 103.016 21.8696ZM99.5908 26.9117H106.175C105.853 24.9647 104.469 24.122 103.005 24.122C101.17 24.122 99.9252 25.2011 99.5908 26.9117ZM115.709 21.9954C116.049 21.9497 116.232 22.1555 116.232 22.487V24.1106C116.232 24.4307 116.095 24.6136 115.857 24.6136C114.366 24.6479 112.955 25.4711 112.955 27.7235V33.0857C112.955 33.4173 112.773 33.6002 112.443 33.6002H111.01C110.68 33.6002 110.498 33.4173 110.498 33.0857V22.6814C110.498 22.3498 110.68 22.1669 111.01 22.1669H112.443C112.773 22.1669 112.955 22.3498 112.955 22.6814V23.8812C113.557 22.6727 114.552 22.12 115.709 21.9954ZM128.788 22.6814V33.0857C128.788 33.4173 128.606 33.6002 128.276 33.6002H126.843C126.513 33.6002 126.331 33.4173 126.331 33.0857V31.9593C125.47 33.1596 124.132 33.8975 122.338 33.8975C119.244 33.8975 116.684 31.2793 116.684 27.8836C116.684 24.4879 119.244 21.8696 122.338 21.8696C124.132 21.8696 125.47 22.6076 126.331 23.8078V22.6814C126.331 22.3498 126.513 22.1669 126.843 22.1669H128.276C128.606 22.1669 128.788 22.3498 128.788 22.6814ZM122.736 31.5422C124.784 31.5422 126.331 30.0102 126.331 27.8836C126.331 25.757 124.784 24.2249 122.736 24.2249C120.689 24.2249 119.141 25.757 119.141 27.8836C119.141 30.0102 120.689 31.5422 122.736 31.5422ZM136.521 22.1669C136.851 22.1669 137.033 22.3498 137.033 22.6814V24.0305C137.033 24.3621 136.851 24.545 136.521 24.545H134.94V33.0857C134.94 33.4173 134.757 33.6002 134.428 33.6002H132.994C132.664 33.6002 132.482 33.4173 132.482 33.0857V24.545H130.889C130.559 24.545 130.378 24.3621 130.378 24.0305V22.6814C130.378 22.3498 130.559 22.1669 130.889 22.1669H132.482V19.0227C132.482 18.6912 132.664 18.5083 132.994 18.5083H134.428C134.757 18.5083 134.94 18.6912 134.94 19.0227V22.1669H136.521ZM143.662 33.8975C140.329 33.8975 137.655 31.2793 137.655 27.8836C137.655 24.4879 140.329 21.8696 143.662 21.8696C146.995 21.8696 149.669 24.4879 149.669 27.8836C149.669 31.2793 146.995 33.8975 143.662 33.8975ZM143.662 31.4965C145.664 31.4965 147.211 29.9644 147.211 27.8836C147.211 25.8027 145.664 24.2706 143.662 24.2706C141.659 24.2706 140.112 25.8027 140.112 27.8836C140.112 29.9644 141.659 31.4965 143.662 31.4965ZM156.855 21.9954C157.196 21.9497 157.378 22.1555 157.378 22.487V24.1106C157.378 24.4307 157.242 24.6136 157.003 24.6136C155.513 24.6479 154.102 25.4711 154.102 27.7235V33.0857C154.102 33.4173 153.92 33.6002 153.59 33.6002H152.157C151.827 33.6002 151.644 33.4173 151.644 33.0857V22.6814C151.644 22.3498 151.827 22.1669 152.157 22.1669H153.59C153.92 22.1669 154.102 22.3498 154.102 22.6814V23.8812C154.704 22.6727 155.699 22.12 156.855 21.9954Z" fill="black"/>
</g>
<defs>
<clipPath id="clip0_15764_234">
<rect width="158" height="56" fill="white"/>
</clipPath>
</defs>
</svg>
